<mxfile host="app.diagrams.net" modified="2024-07-18T17:44:06.013Z" agent="Mozilla/5.0 (Windows NT 10.0; Win64; x64) AppleWebKit/537.36 (KHTML, like Gecko) Chrome/126.0.0.0 Safari/537.36" etag="MnP8jxAw6jp5ysLaVoG3" version="24.7.1" type="device">
  <diagram name="Trang-1" id="8pO1eYkl1uxWZ-bhuEgF">
    <mxGraphModel dx="1050" dy="557" grid="0" gridSize="18" guides="1" tooltips="1" connect="1" arrows="1" fold="1" page="1" pageScale="1" pageWidth="1654" pageHeight="2000" math="0" shadow="0">
      <root>
        <mxCell id="0" />
        <mxCell id="1" parent="0" />
        <mxCell id="BjlUL1ZoS8g2QZXqeRwa-2" value="Hubs" style="whiteSpace=wrap;html=1;align=center;fontSize=24;fillColor=#f8cecc;strokeColor=#b85450;" parent="1" vertex="1">
          <mxGeometry x="270" y="646" width="160" height="80" as="geometry" />
        </mxCell>
        <mxCell id="BjlUL1ZoS8g2QZXqeRwa-3" value="Employees" style="whiteSpace=wrap;html=1;align=center;fontSize=24;fillColor=#e1d5e7;strokeColor=#9673a6;" parent="1" vertex="1">
          <mxGeometry x="270" y="1189" width="160" height="80" as="geometry" />
        </mxCell>
        <mxCell id="BjlUL1ZoS8g2QZXqeRwa-5" value="manage" style="shape=rhombus;perimeter=rhombusPerimeter;whiteSpace=wrap;html=1;align=center;fontSize=24;gradientColor=none;fontColor=#ffffff;fillColor=#660046;" parent="1" vertex="1">
          <mxGeometry x="360" y="850" width="160" height="80" as="geometry" />
        </mxCell>
        <mxCell id="BjlUL1ZoS8g2QZXqeRwa-6" value="" style="edgeStyle=orthogonalEdgeStyle;fontSize=18;html=1;endArrow=ERzeroToOne;endFill=1;entryX=0.75;entryY=1;entryDx=0;entryDy=0;exitX=0.5;exitY=0;exitDx=0;exitDy=0;" parent="1" source="BjlUL1ZoS8g2QZXqeRwa-5" target="BjlUL1ZoS8g2QZXqeRwa-2" edge="1">
          <mxGeometry width="100" height="100" relative="1" as="geometry">
            <mxPoint x="346.5" y="183.06999999999988" as="sourcePoint" />
            <mxPoint x="485.5" y="399.57" as="targetPoint" />
          </mxGeometry>
        </mxCell>
        <mxCell id="BjlUL1ZoS8g2QZXqeRwa-7" value="workIn" style="shape=rhombus;perimeter=rhombusPerimeter;whiteSpace=wrap;html=1;align=center;fontSize=24;fillColor=#660500;gradientColor=none;strokeColor=#b85450;fontColor=#ffffff;" parent="1" vertex="1">
          <mxGeometry x="180" y="850" width="160" height="80" as="geometry" />
        </mxCell>
        <mxCell id="BjlUL1ZoS8g2QZXqeRwa-8" value="" style="fontSize=18;html=1;endArrow=ERmandOne;entryX=0.25;entryY=1;entryDx=0;entryDy=0;edgeStyle=orthogonalEdgeStyle;" parent="1" source="BjlUL1ZoS8g2QZXqeRwa-7" target="BjlUL1ZoS8g2QZXqeRwa-2" edge="1">
          <mxGeometry width="100" height="100" relative="1" as="geometry">
            <mxPoint x="414.4999999999998" y="264.07" as="sourcePoint" />
            <mxPoint x="197.5" y="300.57" as="targetPoint" />
          </mxGeometry>
        </mxCell>
        <mxCell id="BjlUL1ZoS8g2QZXqeRwa-12" value="ship" style="shape=rhombus;perimeter=rhombusPerimeter;whiteSpace=wrap;html=1;align=center;fontSize=24;fillColor=#75004a;gradientColor=none;strokeColor=#996185;fontColor=#ffffff;" parent="1" vertex="1">
          <mxGeometry x="520" y="1050" width="160" height="80" as="geometry" />
        </mxCell>
        <mxCell id="BjlUL1ZoS8g2QZXqeRwa-14" value="Customers" style="whiteSpace=wrap;html=1;align=center;fontSize=24;fillColor=#dae8fc;strokeColor=#6c8ebf;" parent="1" vertex="1">
          <mxGeometry x="1240" y="360" width="160" height="80" as="geometry" />
        </mxCell>
        <mxCell id="BjlUL1ZoS8g2QZXqeRwa-15" value="Orders" style="whiteSpace=wrap;html=1;align=center;fontSize=24;fillColor=#E3E3E3;fontColor=#333333;strokeColor=#666666;" parent="1" vertex="1">
          <mxGeometry x="747" y="960" width="160" height="80" as="geometry" />
        </mxCell>
        <mxCell id="BjlUL1ZoS8g2QZXqeRwa-16" value="Addresses" style="whiteSpace=wrap;html=1;align=center;fontSize=24;fillColor=#ffe6cc;strokeColor=#d79b00;" parent="1" vertex="1">
          <mxGeometry x="753" y="340" width="160" height="80" as="geometry" />
        </mxCell>
        <mxCell id="BjlUL1ZoS8g2QZXqeRwa-20" value="create" style="shape=rhombus;perimeter=rhombusPerimeter;whiteSpace=wrap;html=1;align=center;fontSize=24;fontColor=#ffffff;fillColor=#005161;" parent="1" vertex="1">
          <mxGeometry x="990" y="581" width="160" height="80" as="geometry" />
        </mxCell>
        <mxCell id="BjlUL1ZoS8g2QZXqeRwa-21" value="" style="edgeStyle=orthogonalEdgeStyle;fontSize=18;html=1;endArrow=ERzeroToMany;endFill=1;entryX=1;entryY=0.25;entryDx=0;entryDy=0;exitX=0.5;exitY=1;exitDx=0;exitDy=0;" parent="1" source="BjlUL1ZoS8g2QZXqeRwa-20" target="BjlUL1ZoS8g2QZXqeRwa-15" edge="1">
          <mxGeometry width="100" height="100" relative="1" as="geometry">
            <mxPoint x="493" y="549" as="sourcePoint" />
            <mxPoint x="593" y="449" as="targetPoint" />
          </mxGeometry>
        </mxCell>
        <mxCell id="BjlUL1ZoS8g2QZXqeRwa-27" value="" style="edgeStyle=orthogonalEdgeStyle;fontSize=18;html=1;endArrow=ERmandOne;entryX=0.75;entryY=1;entryDx=0;entryDy=0;exitX=0;exitY=0.5;exitDx=0;exitDy=0;" parent="1" source="-ahUYatLtjjFVaJBWNnS-8" target="-ahUYatLtjjFVaJBWNnS-10" edge="1">
          <mxGeometry width="100" height="100" relative="1" as="geometry">
            <mxPoint x="936" y="592" as="sourcePoint" />
            <mxPoint x="936" y="605" as="targetPoint" />
          </mxGeometry>
        </mxCell>
        <mxCell id="BjlUL1ZoS8g2QZXqeRwa-31" value="from" style="shape=rhombus;perimeter=rhombusPerimeter;whiteSpace=wrap;html=1;align=center;fontSize=24;fontColor=#ffffff;fillColor=#944700;" parent="1" vertex="1">
          <mxGeometry x="837" y="690" width="160" height="80" as="geometry" />
        </mxCell>
        <mxCell id="BjlUL1ZoS8g2QZXqeRwa-33" value="to" style="shape=rhombus;perimeter=rhombusPerimeter;whiteSpace=wrap;html=1;align=center;fontSize=24;fontColor=#ffffff;fillColor=#5c4800;" parent="1" vertex="1">
          <mxGeometry x="657" y="690" width="160" height="80" as="geometry" />
        </mxCell>
        <mxCell id="BjlUL1ZoS8g2QZXqeRwa-36" value="" style="edgeStyle=orthogonalEdgeStyle;fontSize=18;html=1;endArrow=ERzeroToMany;endFill=1;entryX=0.75;entryY=0;entryDx=0;entryDy=0;exitX=0.5;exitY=1;exitDx=0;exitDy=0;" parent="1" source="BjlUL1ZoS8g2QZXqeRwa-31" target="BjlUL1ZoS8g2QZXqeRwa-15" edge="1">
          <mxGeometry width="100" height="100" relative="1" as="geometry">
            <mxPoint x="396" y="522" as="sourcePoint" />
            <mxPoint x="506" y="478" as="targetPoint" />
          </mxGeometry>
        </mxCell>
        <mxCell id="BjlUL1ZoS8g2QZXqeRwa-37" value="" style="edgeStyle=orthogonalEdgeStyle;fontSize=18;html=1;endArrow=ERzeroToMany;endFill=1;exitX=0.5;exitY=1;exitDx=0;exitDy=0;entryX=0.25;entryY=0;entryDx=0;entryDy=0;" parent="1" source="BjlUL1ZoS8g2QZXqeRwa-33" target="BjlUL1ZoS8g2QZXqeRwa-15" edge="1">
          <mxGeometry width="100" height="100" relative="1" as="geometry">
            <mxPoint x="424" y="560" as="sourcePoint" />
            <mxPoint x="674" y="621" as="targetPoint" />
          </mxGeometry>
        </mxCell>
        <mxCell id="BjlUL1ZoS8g2QZXqeRwa-40" value="" style="edgeStyle=orthogonalEdgeStyle;fontSize=18;html=1;endArrow=ERmandOne;exitX=0.5;exitY=0;exitDx=0;exitDy=0;entryX=0.25;entryY=1;entryDx=0;entryDy=0;" parent="1" source="BjlUL1ZoS8g2QZXqeRwa-33" target="BjlUL1ZoS8g2QZXqeRwa-16" edge="1">
          <mxGeometry width="100" height="100" relative="1" as="geometry">
            <mxPoint x="330.5" y="641.07" as="sourcePoint" />
            <mxPoint x="212.5" y="674.57" as="targetPoint" />
          </mxGeometry>
        </mxCell>
        <mxCell id="BjlUL1ZoS8g2QZXqeRwa-41" value="" style="edgeStyle=orthogonalEdgeStyle;fontSize=18;html=1;endArrow=ERmandOne;exitX=0.5;exitY=0;exitDx=0;exitDy=0;entryX=0.75;entryY=1;entryDx=0;entryDy=0;" parent="1" source="BjlUL1ZoS8g2QZXqeRwa-31" target="BjlUL1ZoS8g2QZXqeRwa-16" edge="1">
          <mxGeometry width="100" height="100" relative="1" as="geometry">
            <mxPoint x="267.5" y="568.0699999999999" as="sourcePoint" />
            <mxPoint x="208.5" y="672.57" as="targetPoint" />
          </mxGeometry>
        </mxCell>
        <mxCell id="BjlUL1ZoS8g2QZXqeRwa-55" value="" style="edgeStyle=orthogonalEdgeStyle;fontSize=18;html=1;endArrow=ERmandOne;entryX=0.25;entryY=1;entryDx=0;entryDy=0;exitX=1;exitY=0.5;exitDx=0;exitDy=0;" parent="1" source="BjlUL1ZoS8g2QZXqeRwa-20" target="BjlUL1ZoS8g2QZXqeRwa-14" edge="1">
          <mxGeometry width="100" height="100" relative="1" as="geometry">
            <mxPoint x="854" y="431" as="sourcePoint" />
            <mxPoint x="1005" y="451" as="targetPoint" />
          </mxGeometry>
        </mxCell>
        <mxCell id="BjlUL1ZoS8g2QZXqeRwa-56" value="" style="edgeStyle=orthogonalEdgeStyle;fontSize=18;html=1;endArrow=ERzeroToMany;entryX=0;entryY=0.25;entryDx=0;entryDy=0;exitX=0.5;exitY=1;exitDx=0;exitDy=0;endFill=0;" parent="1" source="-ahUYatLtjjFVaJBWNnS-8" target="BjlUL1ZoS8g2QZXqeRwa-15" edge="1">
          <mxGeometry width="100" height="100" relative="1" as="geometry">
            <mxPoint x="887" y="493" as="sourcePoint" />
            <mxPoint x="634" y="526" as="targetPoint" />
          </mxGeometry>
        </mxCell>
        <mxCell id="BjlUL1ZoS8g2QZXqeRwa-67" value="empID" style="ellipse;whiteSpace=wrap;html=1;align=center;fontStyle=4;fontSize=20;fillColor=#e1d5e7;strokeColor=#9673a6;" parent="1" vertex="1">
          <mxGeometry x="40" y="950" width="120" height="60" as="geometry" />
        </mxCell>
        <mxCell id="BjlUL1ZoS8g2QZXqeRwa-68" value="empName" style="ellipse;whiteSpace=wrap;html=1;align=center;fontSize=20;fillColor=#e1d5e7;strokeColor=#9673a6;" parent="1" vertex="1">
          <mxGeometry x="40" y="1030" width="120" height="60" as="geometry" />
        </mxCell>
        <mxCell id="BjlUL1ZoS8g2QZXqeRwa-69" value="empEmail" style="ellipse;whiteSpace=wrap;html=1;align=center;fontSize=20;fillColor=#e1d5e7;strokeColor=#9673a6;" parent="1" vertex="1">
          <mxGeometry x="40" y="1350" width="120" height="60" as="geometry" />
        </mxCell>
        <mxCell id="BjlUL1ZoS8g2QZXqeRwa-71" value="empPhone" style="ellipse;whiteSpace=wrap;html=1;align=center;fontSize=20;fillColor=#e1d5e7;strokeColor=#9673a6;" parent="1" vertex="1">
          <mxGeometry x="40" y="1270" width="120" height="60" as="geometry" />
        </mxCell>
        <mxCell id="BjlUL1ZoS8g2QZXqeRwa-72" value="empDoB" style="ellipse;whiteSpace=wrap;html=1;align=center;fontSize=20;fillColor=#e1d5e7;strokeColor=#9673a6;" parent="1" vertex="1">
          <mxGeometry x="40" y="1190" width="120" height="60" as="geometry" />
        </mxCell>
        <mxCell id="BjlUL1ZoS8g2QZXqeRwa-73" value="empSSN" style="ellipse;whiteSpace=wrap;html=1;align=center;fontSize=20;fillColor=#e1d5e7;strokeColor=#9673a6;" parent="1" vertex="1">
          <mxGeometry x="40" y="1110" width="120" height="60" as="geometry" />
        </mxCell>
        <mxCell id="BjlUL1ZoS8g2QZXqeRwa-77" style="edgeStyle=orthogonalEdgeStyle;orthogonalLoop=1;jettySize=auto;html=1;exitX=0.5;exitY=1;exitDx=0;exitDy=0;fontSize=18;" parent="1" edge="1">
          <mxGeometry relative="1" as="geometry">
            <mxPoint x="1418" y="392" as="sourcePoint" />
            <mxPoint x="1418" y="392" as="targetPoint" />
          </mxGeometry>
        </mxCell>
        <mxCell id="BjlUL1ZoS8g2QZXqeRwa-81" value="cusID" style="ellipse;whiteSpace=wrap;html=1;align=center;fontStyle=4;fontSize=20;fillColor=#dae8fc;strokeColor=#6c8ebf;" parent="1" vertex="1">
          <mxGeometry x="1497" y="201" width="120" height="60" as="geometry" />
        </mxCell>
        <mxCell id="BjlUL1ZoS8g2QZXqeRwa-82" value="cusPhone" style="ellipse;whiteSpace=wrap;html=1;align=center;fontSize=20;fillColor=#dae8fc;strokeColor=#6c8ebf;" parent="1" vertex="1">
          <mxGeometry x="1497" y="521" width="120" height="60" as="geometry" />
        </mxCell>
        <mxCell id="BjlUL1ZoS8g2QZXqeRwa-83" value="cusDoB" style="ellipse;whiteSpace=wrap;html=1;align=center;fontSize=20;fillColor=#dae8fc;strokeColor=#6c8ebf;" parent="1" vertex="1">
          <mxGeometry x="1497" y="361" width="120" height="60" as="geometry" />
        </mxCell>
        <mxCell id="BjlUL1ZoS8g2QZXqeRwa-84" value="cusName" style="ellipse;whiteSpace=wrap;html=1;align=center;fontSize=20;fillColor=#dae8fc;strokeColor=#6c8ebf;" parent="1" vertex="1">
          <mxGeometry x="1497" y="281" width="120" height="60" as="geometry" />
        </mxCell>
        <mxCell id="BjlUL1ZoS8g2QZXqeRwa-85" style="edgeStyle=orthogonalEdgeStyle;orthogonalLoop=1;jettySize=auto;html=1;exitX=0.5;exitY=1;exitDx=0;exitDy=0;fontSize=18;" parent="1" source="BjlUL1ZoS8g2QZXqeRwa-83" target="BjlUL1ZoS8g2QZXqeRwa-83" edge="1">
          <mxGeometry relative="1" as="geometry" />
        </mxCell>
        <mxCell id="BjlUL1ZoS8g2QZXqeRwa-94" value="addrID" style="ellipse;whiteSpace=wrap;html=1;align=center;fontStyle=4;fontSize=20;strokeWidth=1;fillColor=#ffe6cc;strokeColor=#d79b00;" parent="1" vertex="1">
          <mxGeometry x="513" y="160" width="120" height="60" as="geometry" />
        </mxCell>
        <mxCell id="BjlUL1ZoS8g2QZXqeRwa-95" value="town" style="ellipse;whiteSpace=wrap;html=1;align=center;fontSize=20;strokeWidth=1;fillColor=#ffe6cc;strokeColor=#d79b00;" parent="1" vertex="1">
          <mxGeometry x="903" y="160" width="120" height="60" as="geometry" />
        </mxCell>
        <mxCell id="BjlUL1ZoS8g2QZXqeRwa-96" value="province" style="ellipse;whiteSpace=wrap;html=1;align=center;fontSize=20;strokeWidth=1;fillColor=#ffe6cc;strokeColor=#d79b00;" parent="1" vertex="1">
          <mxGeometry x="643" y="160" width="120" height="60" as="geometry" />
        </mxCell>
        <mxCell id="BjlUL1ZoS8g2QZXqeRwa-98" value="addrDetail" style="ellipse;whiteSpace=wrap;html=1;align=center;fontSize=20;strokeWidth=1;fillColor=#ffe6cc;strokeColor=#d79b00;" parent="1" vertex="1">
          <mxGeometry x="1033" y="160" width="120" height="60" as="geometry" />
        </mxCell>
        <mxCell id="BjlUL1ZoS8g2QZXqeRwa-99" value="district" style="ellipse;whiteSpace=wrap;html=1;align=center;fontSize=20;strokeWidth=1;fillColor=#ffe6cc;strokeColor=#d79b00;" parent="1" vertex="1">
          <mxGeometry x="773" y="160" width="120" height="60" as="geometry" />
        </mxCell>
        <mxCell id="-ahUYatLtjjFVaJBWNnS-1" value="" style="edgeStyle=orthogonalEdgeStyle;fontSize=12;html=1;endArrow=ERzeroToMany;endFill=1;rounded=1;entryX=0;entryY=0.75;entryDx=0;entryDy=0;exitX=1;exitY=0.5;exitDx=0;exitDy=0;curved=0;" parent="1" source="BjlUL1ZoS8g2QZXqeRwa-12" target="BjlUL1ZoS8g2QZXqeRwa-15" edge="1">
          <mxGeometry width="100" height="100" relative="1" as="geometry">
            <mxPoint x="431" y="546" as="sourcePoint" />
            <mxPoint x="531" y="446" as="targetPoint" />
          </mxGeometry>
        </mxCell>
        <mxCell id="-ahUYatLtjjFVaJBWNnS-2" value="" style="edgeStyle=orthogonalEdgeStyle;fontSize=12;html=1;endArrow=ERmandOne;rounded=1;entryX=0;entryY=0.25;entryDx=0;entryDy=0;exitX=1;exitY=0.5;exitDx=0;exitDy=0;curved=0;" parent="1" source="-ahUYatLtjjFVaJBWNnS-4" target="BjlUL1ZoS8g2QZXqeRwa-16" edge="1">
          <mxGeometry width="100" height="100" relative="1" as="geometry">
            <mxPoint x="159.5" y="395.57" as="sourcePoint" />
            <mxPoint x="336.5" y="179.57" as="targetPoint" />
            <Array as="points">
              <mxPoint x="486" y="193" />
              <mxPoint x="486" y="324" />
              <mxPoint x="705" y="324" />
              <mxPoint x="705" y="360" />
            </Array>
          </mxGeometry>
        </mxCell>
        <mxCell id="-ahUYatLtjjFVaJBWNnS-4" value="locatedAt" style="shape=rhombus;perimeter=rhombusPerimeter;whiteSpace=wrap;html=1;align=center;fontSize=24;fillColor=#946300;strokeColor=#000000;fontColor=#ffffff;" parent="1" vertex="1">
          <mxGeometry x="270" y="153" width="160" height="80" as="geometry" />
        </mxCell>
        <mxCell id="-ahUYatLtjjFVaJBWNnS-5" value="" style="edgeStyle=orthogonalEdgeStyle;fontSize=12;html=1;endArrow=ERzeroToOne;endFill=1;rounded=1;exitX=0;exitY=0.5;exitDx=0;exitDy=0;entryX=0.25;entryY=0;entryDx=0;entryDy=0;curved=0;" parent="1" source="-ahUYatLtjjFVaJBWNnS-4" target="BjlUL1ZoS8g2QZXqeRwa-2" edge="1">
          <mxGeometry width="100" height="100" relative="1" as="geometry">
            <mxPoint x="457.5" y="484.57" as="sourcePoint" />
            <mxPoint x="168.5" y="194.57" as="targetPoint" />
            <Array as="points">
              <mxPoint x="51" y="193" />
              <mxPoint x="51" y="495" />
              <mxPoint x="310" y="495" />
            </Array>
          </mxGeometry>
        </mxCell>
        <mxCell id="-ahUYatLtjjFVaJBWNnS-6" value="contain" style="shape=rhombus;perimeter=rhombusPerimeter;whiteSpace=wrap;html=1;align=center;fontSize=24;fillColor=#056600;gradientColor=none;strokeColor=#000000;fontColor=#ffffff;" parent="1" vertex="1">
          <mxGeometry x="990" y="1050" width="160" height="80" as="geometry" />
        </mxCell>
        <mxCell id="-ahUYatLtjjFVaJBWNnS-8" value="receive" style="shape=rhombus;perimeter=rhombusPerimeter;whiteSpace=wrap;html=1;align=center;fontSize=24;fillColor=#615e00;fontColor=#ffffff;" parent="1" vertex="1">
          <mxGeometry x="520" y="581" width="160" height="80" as="geometry" />
        </mxCell>
        <mxCell id="-ahUYatLtjjFVaJBWNnS-9" value="ItemModels" style="whiteSpace=wrap;html=1;align=center;fontSize=24;fillColor=#d5e8d4;strokeColor=#82b366;" parent="1" vertex="1">
          <mxGeometry x="1230" y="1439" width="160" height="80" as="geometry" />
        </mxCell>
        <mxCell id="-ahUYatLtjjFVaJBWNnS-10" value="Receivers" style="whiteSpace=wrap;html=1;align=center;fontSize=24;fillColor=#fff2cc;strokeColor=#d6b656;" parent="1" vertex="1">
          <mxGeometry x="270" y="360" width="160" height="80" as="geometry" />
        </mxCell>
        <mxCell id="-ahUYatLtjjFVaJBWNnS-11" value="" style="edgeStyle=orthogonalEdgeStyle;fontSize=12;html=1;endArrow=ERoneToMany;rounded=1;exitX=1;exitY=0.5;exitDx=0;exitDy=0;curved=0;entryX=0.25;entryY=0;entryDx=0;entryDy=0;" parent="1" source="-ahUYatLtjjFVaJBWNnS-6" target="-ahUYatLtjjFVaJBWNnS-9" edge="1">
          <mxGeometry width="100" height="100" relative="1" as="geometry">
            <mxPoint x="479" y="417" as="sourcePoint" />
            <mxPoint x="795" y="545" as="targetPoint" />
            <Array as="points">
              <mxPoint x="1261" y="1290" />
              <mxPoint x="1188" y="1290" />
              <mxPoint x="1188" y="1398" />
              <mxPoint x="1270" y="1398" />
            </Array>
          </mxGeometry>
        </mxCell>
        <mxCell id="-ahUYatLtjjFVaJBWNnS-13" value="Providers" style="whiteSpace=wrap;html=1;align=center;fontSize=24;fillColor=#B4E9CE;strokeColor=#73C49E;" parent="1" vertex="1">
          <mxGeometry x="1230" y="916" width="160" height="80" as="geometry" />
        </mxCell>
        <mxCell id="-ahUYatLtjjFVaJBWNnS-15" value="provide" style="shape=rhombus;perimeter=rhombusPerimeter;whiteSpace=wrap;html=1;align=center;fontSize=24;fontColor=#ffffff;fillColor=#007063;" parent="1" vertex="1">
          <mxGeometry x="1230" y="1300" width="160" height="80" as="geometry" />
        </mxCell>
        <mxCell id="-ahUYatLtjjFVaJBWNnS-16" value="" style="edgeStyle=orthogonalEdgeStyle;fontSize=12;html=1;endArrow=ERzeroToMany;endFill=1;rounded=1;entryX=0.5;entryY=0;entryDx=0;entryDy=0;exitX=0.5;exitY=1;exitDx=0;exitDy=0;curved=0;" parent="1" source="-ahUYatLtjjFVaJBWNnS-15" target="-ahUYatLtjjFVaJBWNnS-9" edge="1">
          <mxGeometry width="100" height="100" relative="1" as="geometry">
            <mxPoint x="479" y="559" as="sourcePoint" />
            <mxPoint x="579" y="459" as="targetPoint" />
          </mxGeometry>
        </mxCell>
        <mxCell id="-ahUYatLtjjFVaJBWNnS-18" value="hubID" style="ellipse;whiteSpace=wrap;html=1;align=center;fontStyle=4;fontSize=20;strokeWidth=1;fillColor=#f8cecc;strokeColor=#b85450;" parent="1" vertex="1">
          <mxGeometry x="40" y="616" width="120" height="60" as="geometry" />
        </mxCell>
        <mxCell id="-ahUYatLtjjFVaJBWNnS-19" value="hubName" style="ellipse;whiteSpace=wrap;html=1;align=center;fontSize=20;strokeWidth=1;fillColor=#f8cecc;strokeColor=#b85450;" parent="1" vertex="1">
          <mxGeometry x="40" y="696" width="120" height="60" as="geometry" />
        </mxCell>
        <mxCell id="-ahUYatLtjjFVaJBWNnS-22" value="categorize" style="shape=rhombus;perimeter=rhombusPerimeter;whiteSpace=wrap;html=1;align=center;fontSize=24;fillColor=#3a6100;fontColor=#ffffff;" parent="1" vertex="1">
          <mxGeometry x="980" y="1439" width="160" height="80" as="geometry" />
        </mxCell>
        <mxCell id="-ahUYatLtjjFVaJBWNnS-23" value="Categories" style="whiteSpace=wrap;html=1;align=center;fontSize=24;fillColor=#d4f5b3;strokeColor=#A5E15B;" parent="1" vertex="1">
          <mxGeometry x="730" y="1439" width="160" height="80" as="geometry" />
        </mxCell>
        <mxCell id="-ahUYatLtjjFVaJBWNnS-24" value="" style="edgeStyle=orthogonalEdgeStyle;fontSize=12;html=1;endArrow=ERzeroToMany;endFill=1;rounded=1;entryX=0;entryY=0.5;entryDx=0;entryDy=0;exitX=1;exitY=0.5;exitDx=0;exitDy=0;curved=0;" parent="1" source="-ahUYatLtjjFVaJBWNnS-22" target="-ahUYatLtjjFVaJBWNnS-9" edge="1">
          <mxGeometry width="100" height="100" relative="1" as="geometry">
            <mxPoint x="503" y="125" as="sourcePoint" />
            <mxPoint x="603" y="25" as="targetPoint" />
          </mxGeometry>
        </mxCell>
        <mxCell id="-ahUYatLtjjFVaJBWNnS-25" value="" style="edgeStyle=orthogonalEdgeStyle;fontSize=12;html=1;endArrow=ERmandOne;rounded=1;entryX=1;entryY=0.5;entryDx=0;entryDy=0;exitX=0;exitY=0.5;exitDx=0;exitDy=0;" parent="1" source="-ahUYatLtjjFVaJBWNnS-22" target="-ahUYatLtjjFVaJBWNnS-23" edge="1">
          <mxGeometry width="100" height="100" relative="1" as="geometry">
            <mxPoint x="503" y="268" as="sourcePoint" />
            <mxPoint x="603" y="168" as="targetPoint" />
          </mxGeometry>
        </mxCell>
        <mxCell id="-ahUYatLtjjFVaJBWNnS-28" value="cusEmail" style="ellipse;whiteSpace=wrap;html=1;align=center;fontSize=20;fillColor=#dae8fc;strokeColor=#6c8ebf;" parent="1" vertex="1">
          <mxGeometry x="1497" y="441" width="120" height="60" as="geometry" />
        </mxCell>
        <mxCell id="-ahUYatLtjjFVaJBWNnS-38" value="rcvID" style="ellipse;whiteSpace=wrap;html=1;align=center;fontStyle=4;fontSize=20;strokeWidth=1;fillColor=#fff2cc;strokeColor=#d6b656;" parent="1" vertex="1">
          <mxGeometry x="74" y="225" width="120" height="60" as="geometry" />
        </mxCell>
        <mxCell id="-ahUYatLtjjFVaJBWNnS-39" value="rcvName" style="ellipse;whiteSpace=wrap;html=1;align=center;fontSize=20;strokeWidth=1;fillColor=#fff2cc;strokeColor=#d6b656;" parent="1" vertex="1">
          <mxGeometry x="74" y="305" width="120" height="60" as="geometry" />
        </mxCell>
        <mxCell id="-ahUYatLtjjFVaJBWNnS-42" value="prvID" style="ellipse;whiteSpace=wrap;html=1;align=center;fontStyle=4;fontSize=20;fillColor=#B4E9CE;strokeColor=#73C49E;" parent="1" vertex="1">
          <mxGeometry x="1490" y="886" width="120" height="60" as="geometry" />
        </mxCell>
        <mxCell id="-ahUYatLtjjFVaJBWNnS-43" value="prvName" style="ellipse;whiteSpace=wrap;html=1;align=center;fontSize=20;fillColor=#B4E9CE;strokeColor=#73C49E;" parent="1" vertex="1">
          <mxGeometry x="1490" y="966" width="120" height="60" as="geometry" />
        </mxCell>
        <mxCell id="-ahUYatLtjjFVaJBWNnS-46" value="ctgID" style="ellipse;whiteSpace=wrap;html=1;align=center;fontStyle=4;fontSize=20;fillColor=#D4F5B3;strokeColor=#A5E15B;" parent="1" vertex="1">
          <mxGeometry x="490" y="1569" width="124" height="60" as="geometry" />
        </mxCell>
        <mxCell id="-ahUYatLtjjFVaJBWNnS-47" value="ctgName" style="ellipse;whiteSpace=wrap;html=1;align=center;fontSize=20;fillColor=#D4F5B3;strokeColor=#A5E15B;" parent="1" vertex="1">
          <mxGeometry x="620" y="1569" width="120" height="60" as="geometry" />
        </mxCell>
        <mxCell id="-ahUYatLtjjFVaJBWNnS-48" value="ctgDetail" style="ellipse;whiteSpace=wrap;html=1;align=center;fontSize=20;fillColor=#D4F5B3;strokeColor=#A5E15B;" parent="1" vertex="1">
          <mxGeometry x="750" y="1569" width="120" height="60" as="geometry" />
        </mxCell>
        <mxCell id="-ahUYatLtjjFVaJBWNnS-49" style="edgeStyle=orthogonalEdgeStyle;orthogonalLoop=1;jettySize=auto;html=1;exitX=0.5;exitY=1;exitDx=0;exitDy=0;fontSize=18;" parent="1" source="-ahUYatLtjjFVaJBWNnS-47" target="-ahUYatLtjjFVaJBWNnS-47" edge="1">
          <mxGeometry relative="1" as="geometry" />
        </mxCell>
        <mxCell id="-ahUYatLtjjFVaJBWNnS-53" value="itmID" style="ellipse;whiteSpace=wrap;html=1;align=center;fontStyle=4;fontSize=20;fillColor=#d5e8d4;strokeColor=#82b366;" parent="1" vertex="1">
          <mxGeometry x="1055" y="1569" width="120" height="60" as="geometry" />
        </mxCell>
        <mxCell id="-ahUYatLtjjFVaJBWNnS-54" value="itmName" style="ellipse;whiteSpace=wrap;html=1;align=center;fontSize=20;fillColor=#d5e8d4;strokeColor=#82b366;" parent="1" vertex="1">
          <mxGeometry x="1185" y="1569" width="120" height="60" as="geometry" />
        </mxCell>
        <mxCell id="-ahUYatLtjjFVaJBWNnS-55" value="weight" style="ellipse;whiteSpace=wrap;html=1;align=center;fontSize=20;fillColor=#d5e8d4;strokeColor=#82b366;" parent="1" vertex="1">
          <mxGeometry x="1445" y="1569" width="120" height="60" as="geometry" />
        </mxCell>
        <mxCell id="-ahUYatLtjjFVaJBWNnS-56" value="itmDetail" style="ellipse;whiteSpace=wrap;html=1;align=center;fontSize=20;fillColor=#d5e8d4;strokeColor=#82b366;" parent="1" vertex="1">
          <mxGeometry x="1315" y="1569" width="120" height="60" as="geometry" />
        </mxCell>
        <mxCell id="-ahUYatLtjjFVaJBWNnS-57" style="edgeStyle=orthogonalEdgeStyle;orthogonalLoop=1;jettySize=auto;html=1;exitX=0.5;exitY=1;exitDx=0;exitDy=0;fontSize=18;" parent="1" source="-ahUYatLtjjFVaJBWNnS-55" target="-ahUYatLtjjFVaJBWNnS-55" edge="1">
          <mxGeometry relative="1" as="geometry" />
        </mxCell>
        <mxCell id="-ahUYatLtjjFVaJBWNnS-74" value="ordID" style="ellipse;whiteSpace=wrap;html=1;align=center;fontStyle=4;fontSize=20;fillColor=#E3E3E3;fontColor=#333333;strokeColor=#666666;" parent="1" vertex="1">
          <mxGeometry x="522" y="1224" width="120" height="60" as="geometry" />
        </mxCell>
        <mxCell id="-ahUYatLtjjFVaJBWNnS-75" value="typeOfOrd" style="ellipse;whiteSpace=wrap;html=1;align=center;fontSize=20;fillColor=#E3E3E3;fontColor=#333333;strokeColor=#666666;" parent="1" vertex="1">
          <mxGeometry x="662" y="1224" width="120" height="60" as="geometry" />
        </mxCell>
        <mxCell id="-ahUYatLtjjFVaJBWNnS-76" value="COD" style="ellipse;whiteSpace=wrap;html=1;align=center;fontSize=20;fillColor=#E3E3E3;fontColor=#333333;strokeColor=#666666;" parent="1" vertex="1">
          <mxGeometry x="802" y="1224" width="120" height="60" as="geometry" />
        </mxCell>
        <mxCell id="-ahUYatLtjjFVaJBWNnS-77" style="edgeStyle=orthogonalEdgeStyle;orthogonalLoop=1;jettySize=auto;html=1;exitX=0.5;exitY=1;exitDx=0;exitDy=0;fontSize=18;" parent="1" edge="1">
          <mxGeometry relative="1" as="geometry">
            <mxPoint x="820" y="833" as="sourcePoint" />
            <mxPoint x="820" y="833" as="targetPoint" />
          </mxGeometry>
        </mxCell>
        <mxCell id="-ahUYatLtjjFVaJBWNnS-78" value="distance" style="ellipse;whiteSpace=wrap;html=1;align=center;fontSize=20;fillColor=#E3E3E3;fontColor=#333333;strokeColor=#666666;" parent="1" vertex="1">
          <mxGeometry x="592" y="1294" width="120" height="60" as="geometry" />
        </mxCell>
        <mxCell id="-ahUYatLtjjFVaJBWNnS-79" value="orderedTime" style="ellipse;whiteSpace=wrap;html=1;align=center;fontSize=20;fillColor=#E3E3E3;fontColor=#333333;strokeColor=#666666;" parent="1" vertex="1">
          <mxGeometry x="732" y="1294" width="120" height="60" as="geometry" />
        </mxCell>
        <mxCell id="ZGb5kt85dkXXkffIUNiy-2" value="arrivalTime" style="ellipse;whiteSpace=wrap;html=1;align=center;fontSize=20;fillColor=#E3E3E3;fontColor=#333333;strokeColor=#666666;" parent="1" vertex="1">
          <mxGeometry x="872" y="1294" width="120" height="60" as="geometry" />
        </mxCell>
        <mxCell id="ZGb5kt85dkXXkffIUNiy-6" value="rcvPhone" style="ellipse;whiteSpace=wrap;html=1;align=center;fontSize=20;strokeWidth=1;fillColor=#fff2cc;strokeColor=#d6b656;" parent="1" vertex="1">
          <mxGeometry x="74" y="385" width="120" height="60" as="geometry" />
        </mxCell>
        <mxCell id="4po5fHNi0zAmzzgOi-yU-3" value="numOfItem" style="ellipse;whiteSpace=wrap;html=1;align=center;fontSize=20;fillColor=#056600;strokeColor=#000000;fontColor=#ffffff;" parent="1" vertex="1">
          <mxGeometry x="1080" y="990" width="120" height="60" as="geometry" />
        </mxCell>
        <mxCell id="4po5fHNi0zAmzzgOi-yU-6" value="" style="edgeStyle=orthogonalEdgeStyle;fontSize=18;html=1;endArrow=ERzeroToMany;entryX=1;entryY=0.75;entryDx=0;entryDy=0;exitX=0;exitY=0.5;exitDx=0;exitDy=0;endFill=0;" parent="1" source="-ahUYatLtjjFVaJBWNnS-6" target="BjlUL1ZoS8g2QZXqeRwa-15" edge="1">
          <mxGeometry width="100" height="100" relative="1" as="geometry">
            <mxPoint x="720" y="463" as="sourcePoint" />
            <mxPoint x="588" y="415" as="targetPoint" />
          </mxGeometry>
        </mxCell>
        <mxCell id="4po5fHNi0zAmzzgOi-yU-7" value="" style="endArrow=none;html=1;rounded=0;entryX=0;entryY=1;entryDx=0;entryDy=0;exitX=0.5;exitY=0;exitDx=0;exitDy=0;" parent="1" source="-ahUYatLtjjFVaJBWNnS-6" target="4po5fHNi0zAmzzgOi-yU-3" edge="1">
          <mxGeometry relative="1" as="geometry">
            <mxPoint x="531" y="461" as="sourcePoint" />
            <mxPoint x="691" y="461" as="targetPoint" />
          </mxGeometry>
        </mxCell>
        <mxCell id="GVtPz-epqzz2cnUx_BEy-1" value="role" style="ellipse;whiteSpace=wrap;html=1;align=center;fontSize=20;fillColor=#e1d5e7;strokeColor=#9673a6;" parent="1" vertex="1">
          <mxGeometry x="40" y="1430" width="120" height="60" as="geometry" />
        </mxCell>
        <mxCell id="GVtPz-epqzz2cnUx_BEy-3" value="rating" style="ellipse;whiteSpace=wrap;html=1;align=center;fontSize=20;fillColor=#E3E3E3;fontColor=#333333;strokeColor=#666666;" parent="1" vertex="1">
          <mxGeometry x="942" y="1224" width="120" height="60" as="geometry" />
        </mxCell>
        <mxCell id="GVtPz-epqzz2cnUx_BEy-5" value="costFactor" style="ellipse;whiteSpace=wrap;html=1;align=center;fontSize=20;fillColor=#D4F5B3;strokeColor=#A5E15B;" parent="1" vertex="1">
          <mxGeometry x="880" y="1569" width="120" height="60" as="geometry" />
        </mxCell>
        <mxCell id="GVtPz-epqzz2cnUx_BEy-6" value="cost" style="ellipse;whiteSpace=wrap;html=1;align=center;fontSize=20;fillColor=#E3E3E3;fontColor=#333333;strokeColor=#666666;" parent="1" vertex="1">
          <mxGeometry x="1012" y="1294" width="120" height="60" as="geometry" />
        </mxCell>
        <mxCell id="lshgeVBJ3KueVV0_ySKh-1" value="" style="endArrow=none;html=1;rounded=0;entryX=1;entryY=0.5;entryDx=0;entryDy=0;exitX=0;exitY=0.5;exitDx=0;exitDy=0;edgeStyle=orthogonalEdgeStyle;" parent="1" source="BjlUL1ZoS8g2QZXqeRwa-3" target="BjlUL1ZoS8g2QZXqeRwa-72" edge="1">
          <mxGeometry relative="1" as="geometry">
            <mxPoint x="686" y="585" as="sourcePoint" />
            <mxPoint x="846" y="585" as="targetPoint" />
          </mxGeometry>
        </mxCell>
        <mxCell id="lshgeVBJ3KueVV0_ySKh-2" value="" style="endArrow=none;html=1;rounded=0;entryX=1;entryY=0.5;entryDx=0;entryDy=0;exitX=0;exitY=0.5;exitDx=0;exitDy=0;edgeStyle=orthogonalEdgeStyle;" parent="1" source="BjlUL1ZoS8g2QZXqeRwa-3" target="BjlUL1ZoS8g2QZXqeRwa-73" edge="1">
          <mxGeometry relative="1" as="geometry">
            <mxPoint x="838" y="178" as="sourcePoint" />
            <mxPoint x="838" y="118" as="targetPoint" />
          </mxGeometry>
        </mxCell>
        <mxCell id="lshgeVBJ3KueVV0_ySKh-3" value="" style="endArrow=none;html=1;rounded=0;entryX=1;entryY=0.5;entryDx=0;entryDy=0;exitX=0;exitY=0.5;exitDx=0;exitDy=0;edgeStyle=orthogonalEdgeStyle;" parent="1" source="BjlUL1ZoS8g2QZXqeRwa-3" target="BjlUL1ZoS8g2QZXqeRwa-71" edge="1">
          <mxGeometry relative="1" as="geometry">
            <mxPoint x="856" y="196" as="sourcePoint" />
            <mxPoint x="856" y="136" as="targetPoint" />
          </mxGeometry>
        </mxCell>
        <mxCell id="lshgeVBJ3KueVV0_ySKh-4" value="" style="endArrow=none;html=1;rounded=0;entryX=1;entryY=0.5;entryDx=0;entryDy=0;exitX=0;exitY=0.5;exitDx=0;exitDy=0;edgeStyle=orthogonalEdgeStyle;" parent="1" source="BjlUL1ZoS8g2QZXqeRwa-3" target="BjlUL1ZoS8g2QZXqeRwa-69" edge="1">
          <mxGeometry relative="1" as="geometry">
            <mxPoint x="874" y="214" as="sourcePoint" />
            <mxPoint x="874" y="154" as="targetPoint" />
          </mxGeometry>
        </mxCell>
        <mxCell id="lshgeVBJ3KueVV0_ySKh-5" value="" style="endArrow=none;html=1;rounded=0;entryX=1;entryY=0.5;entryDx=0;entryDy=0;exitX=0;exitY=0.5;exitDx=0;exitDy=0;edgeStyle=orthogonalEdgeStyle;" parent="1" source="BjlUL1ZoS8g2QZXqeRwa-3" target="GVtPz-epqzz2cnUx_BEy-1" edge="1">
          <mxGeometry relative="1" as="geometry">
            <mxPoint x="892" y="232" as="sourcePoint" />
            <mxPoint x="892" y="172" as="targetPoint" />
          </mxGeometry>
        </mxCell>
        <mxCell id="lshgeVBJ3KueVV0_ySKh-6" value="" style="endArrow=none;html=1;rounded=0;entryX=1;entryY=0.5;entryDx=0;entryDy=0;exitX=0;exitY=0.5;exitDx=0;exitDy=0;edgeStyle=orthogonalEdgeStyle;" parent="1" source="BjlUL1ZoS8g2QZXqeRwa-3" target="BjlUL1ZoS8g2QZXqeRwa-68" edge="1">
          <mxGeometry relative="1" as="geometry">
            <mxPoint x="910" y="250" as="sourcePoint" />
            <mxPoint x="910" y="190" as="targetPoint" />
          </mxGeometry>
        </mxCell>
        <mxCell id="lshgeVBJ3KueVV0_ySKh-7" value="" style="endArrow=none;html=1;rounded=0;entryX=1;entryY=0.5;entryDx=0;entryDy=0;exitX=0;exitY=0.5;exitDx=0;exitDy=0;edgeStyle=orthogonalEdgeStyle;" parent="1" source="BjlUL1ZoS8g2QZXqeRwa-3" target="BjlUL1ZoS8g2QZXqeRwa-67" edge="1">
          <mxGeometry relative="1" as="geometry">
            <mxPoint x="928" y="268" as="sourcePoint" />
            <mxPoint x="928" y="208" as="targetPoint" />
          </mxGeometry>
        </mxCell>
        <mxCell id="lshgeVBJ3KueVV0_ySKh-8" value="" style="endArrow=none;html=1;rounded=0;entryX=0;entryY=0.5;entryDx=0;entryDy=0;exitX=1;exitY=0.5;exitDx=0;exitDy=0;edgeStyle=orthogonalEdgeStyle;" parent="1" source="BjlUL1ZoS8g2QZXqeRwa-14" target="BjlUL1ZoS8g2QZXqeRwa-81" edge="1">
          <mxGeometry relative="1" as="geometry">
            <mxPoint x="943" y="397" as="sourcePoint" />
            <mxPoint x="943" y="337" as="targetPoint" />
          </mxGeometry>
        </mxCell>
        <mxCell id="lshgeVBJ3KueVV0_ySKh-9" value="" style="endArrow=none;html=1;rounded=0;entryX=0;entryY=0.5;entryDx=0;entryDy=0;exitX=1;exitY=0.5;exitDx=0;exitDy=0;edgeStyle=orthogonalEdgeStyle;" parent="1" source="BjlUL1ZoS8g2QZXqeRwa-14" target="BjlUL1ZoS8g2QZXqeRwa-84" edge="1">
          <mxGeometry relative="1" as="geometry">
            <mxPoint x="961" y="415" as="sourcePoint" />
            <mxPoint x="961" y="355" as="targetPoint" />
          </mxGeometry>
        </mxCell>
        <mxCell id="lshgeVBJ3KueVV0_ySKh-10" value="" style="endArrow=none;html=1;rounded=0;entryX=0;entryY=0.5;entryDx=0;entryDy=0;exitX=1;exitY=0.5;exitDx=0;exitDy=0;edgeStyle=orthogonalEdgeStyle;" parent="1" source="BjlUL1ZoS8g2QZXqeRwa-14" target="BjlUL1ZoS8g2QZXqeRwa-83" edge="1">
          <mxGeometry relative="1" as="geometry">
            <mxPoint x="979" y="433" as="sourcePoint" />
            <mxPoint x="979" y="373" as="targetPoint" />
          </mxGeometry>
        </mxCell>
        <mxCell id="lshgeVBJ3KueVV0_ySKh-11" value="" style="endArrow=none;html=1;rounded=0;entryX=0;entryY=0.5;entryDx=0;entryDy=0;exitX=1;exitY=0.5;exitDx=0;exitDy=0;edgeStyle=orthogonalEdgeStyle;" parent="1" source="BjlUL1ZoS8g2QZXqeRwa-14" target="-ahUYatLtjjFVaJBWNnS-28" edge="1">
          <mxGeometry relative="1" as="geometry">
            <mxPoint x="997" y="451" as="sourcePoint" />
            <mxPoint x="997" y="391" as="targetPoint" />
          </mxGeometry>
        </mxCell>
        <mxCell id="lshgeVBJ3KueVV0_ySKh-12" value="" style="endArrow=none;html=1;rounded=0;entryX=0;entryY=0.5;entryDx=0;entryDy=0;exitX=1;exitY=0.5;exitDx=0;exitDy=0;edgeStyle=orthogonalEdgeStyle;" parent="1" source="-ahUYatLtjjFVaJBWNnS-13" target="-ahUYatLtjjFVaJBWNnS-42" edge="1">
          <mxGeometry relative="1" as="geometry">
            <mxPoint x="1018" y="358" as="sourcePoint" />
            <mxPoint x="1018" y="298" as="targetPoint" />
          </mxGeometry>
        </mxCell>
        <mxCell id="lshgeVBJ3KueVV0_ySKh-13" value="" style="endArrow=none;html=1;rounded=0;entryX=1;entryY=0.5;entryDx=0;entryDy=0;exitX=0;exitY=0.5;exitDx=0;exitDy=0;edgeStyle=orthogonalEdgeStyle;" parent="1" source="BjlUL1ZoS8g2QZXqeRwa-82" target="BjlUL1ZoS8g2QZXqeRwa-14" edge="1">
          <mxGeometry relative="1" as="geometry">
            <mxPoint x="1033" y="487" as="sourcePoint" />
            <mxPoint x="1033" y="427" as="targetPoint" />
          </mxGeometry>
        </mxCell>
        <mxCell id="lshgeVBJ3KueVV0_ySKh-14" value="" style="endArrow=none;html=1;rounded=0;entryX=0;entryY=0.5;entryDx=0;entryDy=0;exitX=1;exitY=0.5;exitDx=0;exitDy=0;edgeStyle=orthogonalEdgeStyle;" parent="1" source="-ahUYatLtjjFVaJBWNnS-13" target="-ahUYatLtjjFVaJBWNnS-43" edge="1">
          <mxGeometry relative="1" as="geometry">
            <mxPoint x="1054" y="394" as="sourcePoint" />
            <mxPoint x="1054" y="334" as="targetPoint" />
          </mxGeometry>
        </mxCell>
        <mxCell id="lshgeVBJ3KueVV0_ySKh-15" value="" style="endArrow=none;html=1;rounded=0;entryX=0.5;entryY=0;entryDx=0;entryDy=0;exitX=0.5;exitY=1;exitDx=0;exitDy=0;edgeStyle=orthogonalEdgeStyle;" parent="1" source="-ahUYatLtjjFVaJBWNnS-9" target="-ahUYatLtjjFVaJBWNnS-55" edge="1">
          <mxGeometry relative="1" as="geometry">
            <mxPoint x="1066" y="131" as="sourcePoint" />
            <mxPoint x="1066" y="71" as="targetPoint" />
          </mxGeometry>
        </mxCell>
        <mxCell id="lshgeVBJ3KueVV0_ySKh-16" value="" style="endArrow=none;html=1;rounded=0;exitX=0.5;exitY=1;exitDx=0;exitDy=0;edgeStyle=orthogonalEdgeStyle;" parent="1" source="-ahUYatLtjjFVaJBWNnS-9" target="-ahUYatLtjjFVaJBWNnS-56" edge="1">
          <mxGeometry relative="1" as="geometry">
            <mxPoint x="1084" y="149" as="sourcePoint" />
            <mxPoint x="1084" y="89" as="targetPoint" />
          </mxGeometry>
        </mxCell>
        <mxCell id="lshgeVBJ3KueVV0_ySKh-17" value="" style="endArrow=none;html=1;rounded=0;entryX=0.5;entryY=0;entryDx=0;entryDy=0;exitX=0.5;exitY=1;exitDx=0;exitDy=0;edgeStyle=orthogonalEdgeStyle;" parent="1" source="-ahUYatLtjjFVaJBWNnS-9" target="-ahUYatLtjjFVaJBWNnS-54" edge="1">
          <mxGeometry relative="1" as="geometry">
            <mxPoint x="1102" y="167" as="sourcePoint" />
            <mxPoint x="1102" y="107" as="targetPoint" />
          </mxGeometry>
        </mxCell>
        <mxCell id="lshgeVBJ3KueVV0_ySKh-18" value="" style="endArrow=none;html=1;rounded=0;entryX=0.5;entryY=0;entryDx=0;entryDy=0;edgeStyle=orthogonalEdgeStyle;exitX=0.5;exitY=1;exitDx=0;exitDy=0;" parent="1" source="-ahUYatLtjjFVaJBWNnS-9" target="-ahUYatLtjjFVaJBWNnS-53" edge="1">
          <mxGeometry relative="1" as="geometry">
            <mxPoint x="1120" y="185" as="sourcePoint" />
            <mxPoint x="1120" y="125" as="targetPoint" />
          </mxGeometry>
        </mxCell>
        <mxCell id="lshgeVBJ3KueVV0_ySKh-19" value="" style="endArrow=none;html=1;rounded=0;entryX=0.5;entryY=1;entryDx=0;entryDy=0;exitX=0.5;exitY=0;exitDx=0;exitDy=0;edgeStyle=orthogonalEdgeStyle;" parent="1" source="GVtPz-epqzz2cnUx_BEy-5" target="-ahUYatLtjjFVaJBWNnS-23" edge="1">
          <mxGeometry relative="1" as="geometry">
            <mxPoint x="1138" y="203" as="sourcePoint" />
            <mxPoint x="1138" y="143" as="targetPoint" />
          </mxGeometry>
        </mxCell>
        <mxCell id="lshgeVBJ3KueVV0_ySKh-20" value="" style="endArrow=none;html=1;rounded=0;entryX=0.5;entryY=0;entryDx=0;entryDy=0;exitX=0.5;exitY=1;exitDx=0;exitDy=0;edgeStyle=orthogonalEdgeStyle;" parent="1" source="-ahUYatLtjjFVaJBWNnS-23" target="-ahUYatLtjjFVaJBWNnS-48" edge="1">
          <mxGeometry relative="1" as="geometry">
            <mxPoint x="1156" y="221" as="sourcePoint" />
            <mxPoint x="1156" y="161" as="targetPoint" />
          </mxGeometry>
        </mxCell>
        <mxCell id="lshgeVBJ3KueVV0_ySKh-21" value="" style="endArrow=none;html=1;rounded=0;entryX=0.5;entryY=0;entryDx=0;entryDy=0;exitX=0.5;exitY=1;exitDx=0;exitDy=0;edgeStyle=orthogonalEdgeStyle;" parent="1" source="-ahUYatLtjjFVaJBWNnS-23" target="-ahUYatLtjjFVaJBWNnS-47" edge="1">
          <mxGeometry relative="1" as="geometry">
            <mxPoint x="1174" y="239" as="sourcePoint" />
            <mxPoint x="1174" y="179" as="targetPoint" />
          </mxGeometry>
        </mxCell>
        <mxCell id="lshgeVBJ3KueVV0_ySKh-22" value="" style="endArrow=none;html=1;rounded=0;entryX=0.5;entryY=1;entryDx=0;entryDy=0;exitX=0.5;exitY=0;exitDx=0;exitDy=0;edgeStyle=orthogonalEdgeStyle;" parent="1" source="-ahUYatLtjjFVaJBWNnS-46" target="-ahUYatLtjjFVaJBWNnS-23" edge="1">
          <mxGeometry relative="1" as="geometry">
            <mxPoint x="1192" y="257" as="sourcePoint" />
            <mxPoint x="1192" y="197" as="targetPoint" />
          </mxGeometry>
        </mxCell>
        <mxCell id="lshgeVBJ3KueVV0_ySKh-23" value="" style="endArrow=none;html=1;rounded=0;entryX=1;entryY=0.5;entryDx=0;entryDy=0;exitX=0;exitY=0.5;exitDx=0;exitDy=0;edgeStyle=orthogonalEdgeStyle;" parent="1" source="BjlUL1ZoS8g2QZXqeRwa-2" target="-ahUYatLtjjFVaJBWNnS-18" edge="1">
          <mxGeometry relative="1" as="geometry">
            <mxPoint x="1219" y="726" as="sourcePoint" />
            <mxPoint x="1219" y="666" as="targetPoint" />
          </mxGeometry>
        </mxCell>
        <mxCell id="lshgeVBJ3KueVV0_ySKh-24" value="" style="endArrow=none;html=1;rounded=0;entryX=0;entryY=0.5;entryDx=0;entryDy=0;exitX=1;exitY=0.5;exitDx=0;exitDy=0;edgeStyle=orthogonalEdgeStyle;" parent="1" source="-ahUYatLtjjFVaJBWNnS-19" target="BjlUL1ZoS8g2QZXqeRwa-2" edge="1">
          <mxGeometry relative="1" as="geometry">
            <mxPoint x="1237" y="744" as="sourcePoint" />
            <mxPoint x="1237" y="684" as="targetPoint" />
          </mxGeometry>
        </mxCell>
        <mxCell id="lshgeVBJ3KueVV0_ySKh-25" value="" style="endArrow=none;html=1;rounded=0;entryX=0.5;entryY=0;entryDx=0;entryDy=0;exitX=0.5;exitY=1;exitDx=0;exitDy=0;edgeStyle=orthogonalEdgeStyle;" parent="1" source="BjlUL1ZoS8g2QZXqeRwa-94" target="BjlUL1ZoS8g2QZXqeRwa-16" edge="1">
          <mxGeometry relative="1" as="geometry">
            <mxPoint x="1249" y="703" as="sourcePoint" />
            <mxPoint x="1249" y="643" as="targetPoint" />
          </mxGeometry>
        </mxCell>
        <mxCell id="lshgeVBJ3KueVV0_ySKh-26" value="" style="endArrow=none;html=1;rounded=0;entryX=0.5;entryY=1;entryDx=0;entryDy=0;exitX=0.5;exitY=0;exitDx=0;exitDy=0;edgeStyle=orthogonalEdgeStyle;" parent="1" source="BjlUL1ZoS8g2QZXqeRwa-16" target="BjlUL1ZoS8g2QZXqeRwa-96" edge="1">
          <mxGeometry relative="1" as="geometry">
            <mxPoint x="1270" y="610" as="sourcePoint" />
            <mxPoint x="1270" y="550" as="targetPoint" />
          </mxGeometry>
        </mxCell>
        <mxCell id="lshgeVBJ3KueVV0_ySKh-27" value="" style="endArrow=none;html=1;rounded=0;entryX=0.5;entryY=1;entryDx=0;entryDy=0;exitX=0.5;exitY=0;exitDx=0;exitDy=0;edgeStyle=orthogonalEdgeStyle;" parent="1" source="BjlUL1ZoS8g2QZXqeRwa-16" target="BjlUL1ZoS8g2QZXqeRwa-99" edge="1">
          <mxGeometry relative="1" as="geometry">
            <mxPoint x="1288" y="628" as="sourcePoint" />
            <mxPoint x="1288" y="568" as="targetPoint" />
          </mxGeometry>
        </mxCell>
        <mxCell id="lshgeVBJ3KueVV0_ySKh-28" value="" style="endArrow=none;html=1;rounded=0;entryX=0.5;entryY=1;entryDx=0;entryDy=0;exitX=0.5;exitY=0;exitDx=0;exitDy=0;edgeStyle=orthogonalEdgeStyle;" parent="1" source="BjlUL1ZoS8g2QZXqeRwa-16" target="BjlUL1ZoS8g2QZXqeRwa-95" edge="1">
          <mxGeometry relative="1" as="geometry">
            <mxPoint x="1306" y="646" as="sourcePoint" />
            <mxPoint x="1306" y="586" as="targetPoint" />
          </mxGeometry>
        </mxCell>
        <mxCell id="lshgeVBJ3KueVV0_ySKh-29" value="" style="endArrow=none;html=1;rounded=0;entryX=0.5;entryY=0;entryDx=0;entryDy=0;exitX=0.5;exitY=1;exitDx=0;exitDy=0;edgeStyle=orthogonalEdgeStyle;" parent="1" source="BjlUL1ZoS8g2QZXqeRwa-98" target="BjlUL1ZoS8g2QZXqeRwa-16" edge="1">
          <mxGeometry relative="1" as="geometry">
            <mxPoint x="275" y="856" as="sourcePoint" />
            <mxPoint x="275" y="796" as="targetPoint" />
          </mxGeometry>
        </mxCell>
        <mxCell id="lshgeVBJ3KueVV0_ySKh-31" value="" style="endArrow=none;html=1;rounded=0;entryX=1;entryY=0.5;entryDx=0;entryDy=0;exitX=0;exitY=0.5;exitDx=0;exitDy=0;edgeStyle=orthogonalEdgeStyle;" parent="1" source="-ahUYatLtjjFVaJBWNnS-10" target="-ahUYatLtjjFVaJBWNnS-38" edge="1">
          <mxGeometry relative="1" as="geometry">
            <mxPoint x="243" y="1006" as="sourcePoint" />
            <mxPoint x="243" y="946" as="targetPoint" />
          </mxGeometry>
        </mxCell>
        <mxCell id="lshgeVBJ3KueVV0_ySKh-32" value="" style="endArrow=none;html=1;rounded=0;entryX=1;entryY=0.5;entryDx=0;entryDy=0;exitX=0;exitY=0.5;exitDx=0;exitDy=0;edgeStyle=orthogonalEdgeStyle;" parent="1" source="-ahUYatLtjjFVaJBWNnS-10" target="-ahUYatLtjjFVaJBWNnS-39" edge="1">
          <mxGeometry relative="1" as="geometry">
            <mxPoint x="1375" y="829" as="sourcePoint" />
            <mxPoint x="1375" y="769" as="targetPoint" />
          </mxGeometry>
        </mxCell>
        <mxCell id="lshgeVBJ3KueVV0_ySKh-33" value="" style="endArrow=none;html=1;rounded=0;entryX=1;entryY=0.5;entryDx=0;entryDy=0;exitX=0;exitY=0.5;exitDx=0;exitDy=0;edgeStyle=orthogonalEdgeStyle;" parent="1" source="-ahUYatLtjjFVaJBWNnS-10" target="ZGb5kt85dkXXkffIUNiy-6" edge="1">
          <mxGeometry relative="1" as="geometry">
            <mxPoint x="1393" y="847" as="sourcePoint" />
            <mxPoint x="1393" y="787" as="targetPoint" />
          </mxGeometry>
        </mxCell>
        <mxCell id="lshgeVBJ3KueVV0_ySKh-42" value="" style="edgeStyle=orthogonalEdgeStyle;fontSize=12;html=1;endArrow=ERzeroToOne;endFill=1;rounded=0;exitX=0.5;exitY=0;exitDx=0;exitDy=0;entryX=0.5;entryY=1;entryDx=0;entryDy=0;" parent="1" source="-ahUYatLtjjFVaJBWNnS-15" target="-ahUYatLtjjFVaJBWNnS-13" edge="1">
          <mxGeometry width="100" height="100" relative="1" as="geometry">
            <mxPoint x="710" y="631" as="sourcePoint" />
            <mxPoint x="810" y="531" as="targetPoint" />
          </mxGeometry>
        </mxCell>
        <mxCell id="m6H9L-eFW0eZ4zLVBRIC-1" value="baseSalary" style="ellipse;whiteSpace=wrap;html=1;align=center;fontSize=20;fillColor=#e1d5e7;strokeColor=#9673a6;" parent="1" vertex="1">
          <mxGeometry x="40" y="1510" width="120" height="60" as="geometry" />
        </mxCell>
        <mxCell id="m6H9L-eFW0eZ4zLVBRIC-2" value="" style="endArrow=none;html=1;rounded=0;entryX=1;entryY=0.5;entryDx=0;entryDy=0;exitX=0;exitY=0.5;exitDx=0;exitDy=0;edgeStyle=orthogonalEdgeStyle;" parent="1" source="BjlUL1ZoS8g2QZXqeRwa-3" target="m6H9L-eFW0eZ4zLVBRIC-1" edge="1">
          <mxGeometry relative="1" as="geometry">
            <mxPoint x="838" y="178" as="sourcePoint" />
            <mxPoint x="1228" y="118" as="targetPoint" />
          </mxGeometry>
        </mxCell>
        <mxCell id="m6H9L-eFW0eZ4zLVBRIC-3" value="discount" style="ellipse;whiteSpace=wrap;html=1;align=center;fontSize=20;fillColor=#B4E9CE;strokeColor=#73C49E;" parent="1" vertex="1">
          <mxGeometry x="1490" y="1046" width="120" height="60" as="geometry" />
        </mxCell>
        <mxCell id="m6H9L-eFW0eZ4zLVBRIC-4" value="" style="endArrow=none;html=1;rounded=0;entryX=0;entryY=0.5;entryDx=0;entryDy=0;exitX=1;exitY=0.5;exitDx=0;exitDy=0;edgeStyle=orthogonalEdgeStyle;" parent="1" source="-ahUYatLtjjFVaJBWNnS-13" target="m6H9L-eFW0eZ4zLVBRIC-3" edge="1">
          <mxGeometry relative="1" as="geometry">
            <mxPoint x="1418" y="608" as="sourcePoint" />
            <mxPoint x="1518" y="648" as="targetPoint" />
          </mxGeometry>
        </mxCell>
        <mxCell id="57HRHGnF48i8tDjTuyi2-1" value="" style="edgeStyle=orthogonalEdgeStyle;fontSize=12;html=1;endArrow=ERzeroToOne;endFill=1;rounded=1;entryX=0.75;entryY=0;entryDx=0;entryDy=0;exitX=0.5;exitY=1;exitDx=0;exitDy=0;curved=0;" parent="1" source="BjlUL1ZoS8g2QZXqeRwa-5" target="BjlUL1ZoS8g2QZXqeRwa-3" edge="1">
          <mxGeometry width="100" height="100" relative="1" as="geometry">
            <mxPoint x="938" y="631" as="sourcePoint" />
            <mxPoint x="1038" y="531" as="targetPoint" />
          </mxGeometry>
        </mxCell>
        <mxCell id="57HRHGnF48i8tDjTuyi2-2" value="" style="fontSize=12;html=1;endArrow=ERzeroToOne;endFill=1;rounded=1;entryX=1;entryY=0.5;entryDx=0;entryDy=0;exitX=0;exitY=0.5;exitDx=0;exitDy=0;edgeStyle=orthogonalEdgeStyle;curved=0;" parent="1" source="BjlUL1ZoS8g2QZXqeRwa-12" target="BjlUL1ZoS8g2QZXqeRwa-3" edge="1">
          <mxGeometry width="100" height="100" relative="1" as="geometry">
            <mxPoint x="668" y="218" as="sourcePoint" />
            <mxPoint x="758" y="218" as="targetPoint" />
          </mxGeometry>
        </mxCell>
        <mxCell id="57HRHGnF48i8tDjTuyi2-3" value="" style="edgeStyle=orthogonalEdgeStyle;fontSize=12;html=1;endArrow=ERzeroToMany;endFill=1;rounded=1;entryX=0.25;entryY=0;entryDx=0;entryDy=0;exitX=0.5;exitY=1;exitDx=0;exitDy=0;curved=0;" parent="1" source="BjlUL1ZoS8g2QZXqeRwa-7" target="BjlUL1ZoS8g2QZXqeRwa-3" edge="1">
          <mxGeometry width="100" height="100" relative="1" as="geometry">
            <mxPoint x="938" y="631" as="sourcePoint" />
            <mxPoint x="1038" y="531" as="targetPoint" />
          </mxGeometry>
        </mxCell>
        <mxCell id="N3MvODacgIZpQRtFpQtP-5" value="at" style="shape=rhombus;perimeter=rhombusPerimeter;whiteSpace=wrap;html=1;align=center;fontSize=24;fillColor=#615e00;fontColor=#ffffff;" parent="1" vertex="1">
          <mxGeometry x="520" y="360" width="160" height="80" as="geometry" />
        </mxCell>
        <mxCell id="N3MvODacgIZpQRtFpQtP-6" value="at" style="shape=rhombus;perimeter=rhombusPerimeter;whiteSpace=wrap;html=1;align=center;fontSize=24;fontColor=#ffffff;fillColor=#005161;" parent="1" vertex="1">
          <mxGeometry x="990" y="360" width="160" height="80" as="geometry" />
        </mxCell>
        <mxCell id="N3MvODacgIZpQRtFpQtP-7" value="" style="edgeStyle=orthogonalEdgeStyle;fontSize=12;html=1;endArrow=ERzeroToOne;endFill=1;rounded=1;entryX=0;entryY=0.75;entryDx=0;entryDy=0;exitX=1;exitY=0.5;exitDx=0;exitDy=0;" parent="1" source="N3MvODacgIZpQRtFpQtP-5" target="BjlUL1ZoS8g2QZXqeRwa-16" edge="1">
          <mxGeometry width="100" height="100" relative="1" as="geometry">
            <mxPoint x="850" y="942" as="sourcePoint" />
            <mxPoint x="950" y="842" as="targetPoint" />
          </mxGeometry>
        </mxCell>
        <mxCell id="N3MvODacgIZpQRtFpQtP-8" value="" style="edgeStyle=orthogonalEdgeStyle;fontSize=12;html=1;endArrow=ERzeroToMany;endFill=0;rounded=1;entryX=1;entryY=0.5;entryDx=0;entryDy=0;exitX=0;exitY=0.5;exitDx=0;exitDy=0;" parent="1" source="N3MvODacgIZpQRtFpQtP-5" target="-ahUYatLtjjFVaJBWNnS-10" edge="1">
          <mxGeometry width="100" height="100" relative="1" as="geometry">
            <mxPoint x="647" y="472" as="sourcePoint" />
            <mxPoint x="765" y="421" as="targetPoint" />
          </mxGeometry>
        </mxCell>
        <mxCell id="N3MvODacgIZpQRtFpQtP-9" value="" style="edgeStyle=orthogonalEdgeStyle;fontSize=12;html=1;endArrow=ERzeroToOne;endFill=1;rounded=1;entryX=1;entryY=0.75;entryDx=0;entryDy=0;exitX=0;exitY=0.5;exitDx=0;exitDy=0;" parent="1" source="N3MvODacgIZpQRtFpQtP-6" target="BjlUL1ZoS8g2QZXqeRwa-16" edge="1">
          <mxGeometry width="100" height="100" relative="1" as="geometry">
            <mxPoint x="672" y="489" as="sourcePoint" />
            <mxPoint x="765" y="421" as="targetPoint" />
          </mxGeometry>
        </mxCell>
        <mxCell id="N3MvODacgIZpQRtFpQtP-10" value="" style="edgeStyle=orthogonalEdgeStyle;fontSize=12;html=1;endArrow=ERzeroToMany;endFill=0;rounded=1;entryX=0;entryY=0.5;entryDx=0;entryDy=0;exitX=1;exitY=0.5;exitDx=0;exitDy=0;" parent="1" source="N3MvODacgIZpQRtFpQtP-6" target="BjlUL1ZoS8g2QZXqeRwa-14" edge="1">
          <mxGeometry width="100" height="100" relative="1" as="geometry">
            <mxPoint x="512" y="489" as="sourcePoint" />
            <mxPoint x="452" y="353" as="targetPoint" />
          </mxGeometry>
        </mxCell>
        <mxCell id="N3MvODacgIZpQRtFpQtP-12" value="" style="endArrow=none;html=1;rounded=0;entryX=0.5;entryY=1;entryDx=0;entryDy=0;exitX=0.5;exitY=0;exitDx=0;exitDy=0;edgeStyle=orthogonalEdgeStyle;" parent="1" source="-ahUYatLtjjFVaJBWNnS-74" target="BjlUL1ZoS8g2QZXqeRwa-15" edge="1">
          <mxGeometry relative="1" as="geometry">
            <mxPoint x="739" y="1204" as="sourcePoint" />
            <mxPoint x="899" y="1204" as="targetPoint" />
            <Array as="points">
              <mxPoint x="582" y="1167" />
              <mxPoint x="827" y="1167" />
            </Array>
          </mxGeometry>
        </mxCell>
        <mxCell id="N3MvODacgIZpQRtFpQtP-13" value="" style="endArrow=none;html=1;rounded=0;entryX=0.5;entryY=1;entryDx=0;entryDy=0;exitX=0.5;exitY=0;exitDx=0;exitDy=0;edgeStyle=orthogonalEdgeStyle;" parent="1" source="-ahUYatLtjjFVaJBWNnS-75" target="BjlUL1ZoS8g2QZXqeRwa-15" edge="1">
          <mxGeometry relative="1" as="geometry">
            <mxPoint x="600" y="1201" as="sourcePoint" />
            <mxPoint x="845" y="1058" as="targetPoint" />
            <Array as="points">
              <mxPoint x="722" y="1167" />
              <mxPoint x="827" y="1167" />
            </Array>
          </mxGeometry>
        </mxCell>
        <mxCell id="N3MvODacgIZpQRtFpQtP-14" value="" style="endArrow=none;html=1;rounded=0;entryX=0.5;entryY=1;entryDx=0;entryDy=0;exitX=0.5;exitY=0;exitDx=0;exitDy=0;edgeStyle=orthogonalEdgeStyle;" parent="1" source="-ahUYatLtjjFVaJBWNnS-78" target="BjlUL1ZoS8g2QZXqeRwa-15" edge="1">
          <mxGeometry relative="1" as="geometry">
            <mxPoint x="618" y="1219" as="sourcePoint" />
            <mxPoint x="863" y="1076" as="targetPoint" />
            <Array as="points">
              <mxPoint x="652" y="1167" />
              <mxPoint x="827" y="1167" />
            </Array>
          </mxGeometry>
        </mxCell>
        <mxCell id="N3MvODacgIZpQRtFpQtP-15" value="" style="endArrow=none;html=1;rounded=0;entryX=0.5;entryY=1;entryDx=0;entryDy=0;exitX=0.5;exitY=0;exitDx=0;exitDy=0;edgeStyle=orthogonalEdgeStyle;" parent="1" source="-ahUYatLtjjFVaJBWNnS-79" target="BjlUL1ZoS8g2QZXqeRwa-15" edge="1">
          <mxGeometry relative="1" as="geometry">
            <mxPoint x="636" y="1237" as="sourcePoint" />
            <mxPoint x="881" y="1094" as="targetPoint" />
          </mxGeometry>
        </mxCell>
        <mxCell id="N3MvODacgIZpQRtFpQtP-16" value="" style="endArrow=none;html=1;rounded=0;entryX=0.5;entryY=1;entryDx=0;entryDy=0;exitX=0.5;exitY=0;exitDx=0;exitDy=0;edgeStyle=orthogonalEdgeStyle;" parent="1" source="-ahUYatLtjjFVaJBWNnS-76" target="BjlUL1ZoS8g2QZXqeRwa-15" edge="1">
          <mxGeometry relative="1" as="geometry">
            <mxPoint x="654" y="1255" as="sourcePoint" />
            <mxPoint x="899" y="1112" as="targetPoint" />
            <Array as="points">
              <mxPoint x="862" y="1167" />
              <mxPoint x="827" y="1167" />
            </Array>
          </mxGeometry>
        </mxCell>
        <mxCell id="N3MvODacgIZpQRtFpQtP-17" value="" style="endArrow=none;html=1;rounded=0;entryX=0.5;entryY=1;entryDx=0;entryDy=0;exitX=0.5;exitY=0;exitDx=0;exitDy=0;edgeStyle=orthogonalEdgeStyle;" parent="1" source="ZGb5kt85dkXXkffIUNiy-2" target="BjlUL1ZoS8g2QZXqeRwa-15" edge="1">
          <mxGeometry relative="1" as="geometry">
            <mxPoint x="672" y="1273" as="sourcePoint" />
            <mxPoint x="917" y="1130" as="targetPoint" />
          </mxGeometry>
        </mxCell>
        <mxCell id="N3MvODacgIZpQRtFpQtP-18" value="" style="endArrow=none;html=1;rounded=0;entryX=0.5;entryY=1;entryDx=0;entryDy=0;exitX=0.5;exitY=0;exitDx=0;exitDy=0;edgeStyle=orthogonalEdgeStyle;" parent="1" source="GVtPz-epqzz2cnUx_BEy-3" target="BjlUL1ZoS8g2QZXqeRwa-15" edge="1">
          <mxGeometry relative="1" as="geometry">
            <mxPoint x="690" y="1291" as="sourcePoint" />
            <mxPoint x="935" y="1148" as="targetPoint" />
            <Array as="points">
              <mxPoint x="1002" y="1167" />
              <mxPoint x="827" y="1167" />
            </Array>
          </mxGeometry>
        </mxCell>
        <mxCell id="N3MvODacgIZpQRtFpQtP-19" value="" style="endArrow=none;html=1;rounded=0;entryX=0.5;entryY=1;entryDx=0;entryDy=0;exitX=0.5;exitY=0;exitDx=0;exitDy=0;edgeStyle=orthogonalEdgeStyle;" parent="1" source="GVtPz-epqzz2cnUx_BEy-6" target="BjlUL1ZoS8g2QZXqeRwa-15" edge="1">
          <mxGeometry relative="1" as="geometry">
            <mxPoint x="708" y="1309" as="sourcePoint" />
            <mxPoint x="953" y="1166" as="targetPoint" />
          </mxGeometry>
        </mxCell>
      </root>
    </mxGraphModel>
  </diagram>
</mxfile>
